<svg xmlns="http://www.w3.org/2000/svg" xmlns:xlink="http://www.w3.org/1999/xlink" version="1.1" id="Layer_1" x="0px" y="0px" viewBox="0 0 21 21" style="enable-background:new 0 0 21 21;" xml:space="preserve" width="21"  height="21" >
<style type="text/css">
	.st0{fill:none;stroke:#1C4A36;stroke-width:1.75;stroke-linecap:round;stroke-linejoin:round;}
</style>
<path class="st0" d="M14,8.8c0,0.9-0.4,1.8-1,2.5c-0.7,0.7-1.5,1-2.5,1c-0.9,0-1.8-0.4-2.5-1c-0.7-0.7-1-1.5-1-2.5 M5.2,1.8L2.6,5.2  v12.2c0,1,0.8,1.8,1.8,1.8h12.2c0.5,0,0.9-0.2,1.2-0.5s0.5-0.8,0.5-1.2V5.2l-2.6-3.5H5.2z M3.3,5.2h14.3H3.3z"/>
</svg>